<?xml version="1.0" encoding="UTF-8"?> <svg xmlns="http://www.w3.org/2000/svg" viewBox="0 0 640 480"><g fill="#fdd307" stroke="#000" stroke-width="2.5"><path d="m208 366.47l-3.6906 3.3866c-1.0422 1.2339-1.5688 1.1139-3.0191 0.74262-2.7877-0.49533-5.7604 0.27173-8.009 2.335-3.8295 3.514-4.1102 9.4693-0.59613 13.299 3.514 3.8294 9.4952 4.0864 13.325 0.57239 2.1038-1.9305 3.119-4.599 3.0286-7.247-0.25232-1.5775-0.49206-2.1703 0.66443-3.2315l3.9858-3.6575-5.6887-6.1994z"></path><g fill-rule="evenodd"><path d="m221.12 272.07l-14.052 12.894 13.653 14.879-9.0925 8.3435-13.653-14.879-3.4355 3.1525-4.0038 3.674-3.4355 3.1525 13.653 14.879-9.0925 8.3435-13.653-14.879-14.052 12.894 17.446 19.012 6.4766-2.8978 4.551 4.9595-3.4426 6.2042 6.8265 7.4393 18.185-16.687 8.3435 9.0925 20.794-19.081-8.3435-9.0925 18.185-16.687-6.8265-7.4393-6.4766 2.8978-4.551-4.9596 3.4425-6.2042-17.445-19.012z"></path><path d="m454.42 146.08c-3.8131-4.1555-9.7053-5.4878-12.802-2.6467-2.0006 1.8358-2.4558 4.8715-1.5054 7.9003l-2.7639 2.5362-3.8399-4.1846c-9.1973 6.0864-21.732 4.7847-29.422-3.5964-8.5233-9.2885-7.9012-23.773 1.3873-32.296 9.2886-8.5234 23.747-7.8774 32.27 1.4111 4.092 4.4594 6.0203 10.106 5.9501 15.714l12.743-0.3212c-0.74426-5.5255 1.1334-11.318 5.5483-15.369 2.6887-2.4673 5.937-3.9377 9.2969-4.4391 0.89801-0.13393 1.8085-0.21059 2.7136-0.2059 0.13513 6.56e-4 0.26092 0.013123 0.39612 0.016922 0.12463 0.00351 0.24829-0.014801 0.37268-0.008713 0.52399 0.026031 1.0608 0.094788 1.5808 0.16705 0.55939 0.077896 1.1228 0.1888 1.6736 0.32013 0.098267 0.023331 0.1969 0.037079 0.29492 0.062195 0.45081 0.11569 0.88068 0.25262 1.3226 0.4043 1.0759 0.36897 2.1388 0.86884 3.1385 1.4498 0.41705 0.24239 0.8327 0.49345 1.2324 0.7726 0.15588 0.10881 0.30371 0.22778 0.4566 0.34212 0.39496 0.29553 0.77667 0.61014 1.1505 0.94269 0.43634 0.38805 0.85883 0.7821 1.2626 1.2205 0.008179 0.008881 0.015747 0.017136 0.023682 0.025833 0.4021 0.43988 0.75854 0.89479 1.1077 1.3626 0.29926 0.40099 0.58002 0.80821 0.84052 1.2271 0.037476 0.059891 0.079712 0.11835 0.11646 0.17865 0.011841 0.019592 0.035522 0.032089 0.047363 0.051666 0.063965 0.106 0.098206 0.2225 0.15961 0.32939 0.22894 0.40048 0.44757 0.80542 0.6424 1.2186 0.49316 1.0459 0.87628 2.1218 1.1517 3.2255 0.025085 0.10002 0.062988 0.2011 0.086304 0.30147 0.10449 0.45261 0.19507 0.91815 0.26343 1.376 0.14752 0.98872 0.21588 1.965 0.19537 2.9611-0.002563 0.13228-0.011536 0.2641-0.017029 0.39627-0.024292 0.5637-0.069885 1.1463-0.1477 1.7057-0.001953 0.017075 2.44e-4 0.032837-0.002075 0.0495-0.077148 0.54304-0.19049 1.089-0.31787 1.624-0.78772 3.3047-2.5312 6.4148-5.2201 8.882-4.4149 4.0512-10.347 5.4252-15.788 4.2099l-1.4127 12.668c5.5934 0.41092 11.054 2.8164 15.146 7.2756 8.5234 9.2886 7.927 23.749-1.3614 32.273-9.2886 8.5234-23.773 7.9011-32.296-1.3875-7.6906-8.381-7.9125-20.981-1.0598-29.622l-3.84-4.1847 2.7639-2.5362c2.9362 1.2065 5.9996 1.0133 8.0002-0.82252 3.0962-2.8411 2.274-8.8258-1.5389-12.981v1.68e-4zm40.106-36.873c-0.51215-0.55476-1.0497-1.0779-1.5944-1.5821-0.48511-0.44893-0.97369-0.89584-1.4825-1.3044-0.065247-0.052368-0.12604-0.10533-0.19171-0.15715-0.075195-0.059418-0.16553-0.10056-0.24127-0.15924-0.51263-0.39555-1.0307-0.77869-1.5641-1.1341-0.56757-0.37824-1.1522-0.7345-1.7407-1.0673-0.24823-0.14059-0.50012-0.2719-0.75171-0.40439-0.078918-0.041519-0.16425-0.069153-0.24347-0.10983-0.37854-0.19466-0.75616-0.39363-1.1417-0.57011-0.24438-0.11182-0.48322-0.22459-0.7301-0.32902-0.27325-0.11545-0.55334-0.22702-0.82947-0.33348-0.097717-0.037628-0.19476-0.07518-0.29297-0.11183-0.22705-0.084534-0.45587-0.14928-0.68494-0.22792-0.44342-0.15219-0.87097-0.3243-1.3204-0.45374-0.42383-0.12234-0.84876-0.20081-1.2772-0.30299-0.39752-0.094696-0.80322-0.19771-1.204-0.27504-0.48242-0.093002-0.96771-0.16846-1.4539-0.23613-0.35455-0.049347-0.70575-0.084305-1.0616-0.11995-0.091187-0.009262-0.18024-0.028259-0.27148-0.036575-0.33887-0.030655-0.67444-0.04982-1.0143-0.06839-0.48975-0.026627-0.9718-0.036865-1.4623-0.037903-0.066406-1.98e-4 -0.13178-0.008835-0.19812-0.008514-0.44867 0.002213-0.89337 0.017975-1.3417 0.041519-0.40656 0.021393-0.81329 0.032715-1.2189 0.071701-0.4892 0.047058-0.98602 0.13698-1.473 0.20967-0.44177 0.065964-0.88538 0.12897-1.3243 0.21614-0.88629 0.17578-1.7635 0.39375-2.6335 0.65607-0.4408 0.13275-0.8739 0.285-1.3093 0.43993-0.42902 0.15277-0.83881 0.31732-1.2618 0.49167-0.082886 0.034271-0.16925 0.053467-0.25183 0.088531-2.8693 1.2159-5.5868 2.9379-8.013 5.1642-2.2991 2.1097-4.1355 4.5172-5.5656 7.1055-1.207-2.1513-2.6626-4.198-4.403-6.0946-12.187-13.281-32.859-14.194-46.14-2.007s-14.17 32.885-1.9832 46.166c7.4368 8.1044 18.044 11.584 28.192 10.292-4.6639 4.1498-11.555 4.8682-17.708 6.7328l-1.4587 10.855-0.9277 0.8039c-0.31873-0.72456-0.73724-1.4256-1.3018-2.0409-2.7664-3.0148-7.4371-3.2154-10.452-0.44908-3.0147 2.7663-3.2412 7.4607-0.47473 10.476 0.51074 0.55658 1.1085 1.0006 1.7279 1.3645l-191.35 174.82 11.069 12.063 190.59-175.65c0.30945 0.64835 0.70056 1.282 1.2114 1.8386 2.7663 3.0147 7.4628 3.1915 10.477 0.42517 3.0147-2.7663 3.2154-7.4369 0.4491-10.452-0.5647-0.6154-1.2274-1.0926-1.9218-1.4721l0.8804-0.8554 10.94-0.5226c2.3854-5.9703 3.6921-12.774 8.2265-17.065-2.1567 9.9999 0.40027 20.866 7.837 28.971 12.187 13.281 32.885 14.17 46.166 1.9832s14.144-32.861 1.9573-46.142c-1.7403-1.8966-3.6547-3.5223-5.6945-4.9094 2.7012-1.203 5.2575-2.826 7.5566-4.9357 2.4263-2.2264 4.3749-4.7864 5.8323-7.5407 0.041809-0.078888 0.068848-0.16422 0.10974-0.24342 0.07074-0.13664 0.12323-0.27588 0.19153-0.41348 0.13312-0.26856 0.28247-0.5296 0.40656-0.80145 0.047302-0.10362 0.091736-0.21262 0.13763-0.31665 0.050842-0.11467 0.1145-0.22493 0.16351-0.34036 0.19464-0.45698 0.362-0.92638 0.53119-1.3915 0.054077-0.14828 0.11633-0.29036 0.16791-0.43932 0.005005-0.015411-0.003296-0.034393 0.002075-0.0495 0.047241-0.13759 0.096863-0.27754 0.14191-0.41573 0.15582-0.47827 0.30475-0.96062 0.43426-1.4453 0.011047-0.040955 0.019348-0.081665 0.030029-0.12274 0.053772-0.20448 0.10138-0.4084 0.15051-0.61385 0.11414-0.47893 0.24646-0.9661 0.3352-1.4496 0.10846-0.59061 0.18042-1.2051 0.25098-1.8006 0.012695-0.10733 0.027222-0.21342 0.038635-0.32091 0.064392-0.60184 0.10046-1.1767 0.12616-1.7811 0.019165-0.4483 0.01001-0.89076 0.007874-1.3396-0.002258-0.44493-0.01825-0.89711-0.041565-1.3417-0.016602-0.31543-0.031494-0.63055-0.058655-0.9454-0.016418-0.19052-0.029541-0.38255-0.049866-0.57283-0.036926-0.34584-0.079834-0.67816-0.12976-1.0229-0.009644-0.06749-0.030823-0.13284-0.041016-0.20024-0.13171-0.86942-0.29565-1.7208-0.50958-2.5776-0.10333-0.41388-0.22052-0.8454-0.34314-1.2554-0.062317-0.20799-0.12897-0.42197-0.19629-0.62875-0.096252-0.29607-0.17834-0.58722-0.28473-0.88068-0.17169-0.47365-0.36224-0.92273-0.56067-1.3888-0.11694-0.27534-0.25964-0.563-0.38592-0.8354-0.26483-0.56862-0.53955-1.1448-0.84509-1.6988-0.29315-0.53377-0.59387-1.0598-0.92474-1.5781-0.11298-0.17711-0.23163-0.36082-0.34918-0.53603-0.35944-0.5361-0.74792-1.0467-1.1487-1.5629-0.4596-0.59196-0.92548-1.1614-1.4395-1.7243-0.015869-0.017395-0.031494-0.034302-0.047424-0.051666-0.007874-0.008575-0.015808-0.017258-0.023743-0.025833l-1e-4 -3e-4z"></path></g></g><path d="m47.821 139.74c-12.759 14.255-11.52 36.174 2.7352 48.933s36.174 11.52 48.933-2.7352c2.1979-2.4557 3.9468-5.1182 5.3202-7.9417-0.45018-0.67096-0.98738-1.3072-1.6182-1.8718-2.5093-2.2459-5.8323-2.9772-8.8635-2.2401-0.86636 1.6207-1.9174 3.1411-3.1979 4.5717-8.6287 9.6407-23.451 10.486-33.092 1.8577-9.6407-8.6288-10.486-23.451-1.8577-33.092 8.6288-9.6407 23.477-10.463 33.118-1.8344 4.1439 3.709 6.6505 8.5735 7.4851 13.663 3.9581 0.018616 7.9149 0.96454 11.508 2.913-0.23673-9.2061-4.1067-18.308-11.511-24.935-14.255-12.759-36.201-11.543-48.959 2.7118h8e-6z" fill="#fff"></path></svg> 