<?xml version="1.0" encoding="UTF-8"?> <svg xmlns="http://www.w3.org/2000/svg" width="600px" height="976px" viewBox="0 0 600 976"><g id="layer1"><g style="fill:rgb(0,0,0); fill-opacity:1.0; stroke-linejoin: miter"><path d="M146.76576,257.8382C148.38188,257.8382,150.1563,257.91867,151.32518,258.08505C152.89658,258.343,153.04642,258.4548,154.32407,260.84494C155.71439,263.42197,157.51523,265.66135,158.48874,266.1076C158.7883,266.2564,159.34995,266.51678,159.72446,266.74017C160.06155,266.92633,160.6608,267.2614,160.99783,267.44757C161.70926,267.7824,162.95076,270.65887,163.25496,272.64032C163.36885,273.31305,163.59486,273.94843,163.78212,274.06012C163.96944,274.1718,164.12044,274.73236,164.12196,275.33075C164.12349,275.92914,164.31197,276.52704,164.49928,276.63873C164.72389,276.7503,164.87587,277.685,164.87846,278.69467C164.88103,279.70444,165.03294,280.60165,165.2202,280.71335C165.5574,280.93698,165.67111,281.535,166.35605,286.17075C166.54648,287.51657,166.81204,289.0119,166.92557,289.5351C167.0765,290.0584,167.26694,291.40424,167.38193,292.52594C167.49698,293.64764,167.95364,296.75055,168.3718,299.40485C169.05557,303.59174,169.13486,305.34918,168.96695,312.86673C168.86685,317.6166,168.61685,322.2548,168.3948,323.19022C168.17282,324.12576,167.80539,326.7073,167.6242,328.98907C167.44293,331.23346,167.07904,335.19867,166.86115,337.7797C166.64337,340.36075,166.27527,342.68045,166.08893,342.94266C165.99254,343.05664,165.87178,343.11017,165.73271,343.11017C164.95729,343.11017,163.61287,341.44604,162.75122,339.32352C162.26215,338.16544,161.66083,337.0075,161.43579,336.7464C161.17334,336.52252,160.83527,335.9251,160.68445,335.4394C160.53375,334.9909,159.89478,333.75836,159.25647,332.75018C158.61804,331.70465,157.75415,330.24823,157.34076,329.46405C156.92763,328.7172,156.51479,328.0827,156.36507,328.0827L156.36467,328.0827C156.21512,328.0827,156.02744,327.78412,155.91441,327.41055C155.7639,327.0745,154.5625,325.20755,153.21124,323.30374C151.86005,321.3998,150.77112,319.68216,150.77063,319.49515C150.77008,319.27106,150.62048,319.12198,150.47107,319.12198L150.47037,319.12198C150.32063,319.12198,149.87059,318.56232,149.45758,317.8903C149.08203,317.25552,148.59393,316.50882,148.44385,316.32217C145.89252,313.07498,142.51167,307.17462,142.50844,305.903C142.50764,305.60382,142.20723,305.11847,141.83253,304.8576C140.78365,304.14972,140.25685,302.91693,140.2527,301.2713C140.25002,300.22418,139.98665,299.58917,139.34938,298.99237C138.14973,297.87347,136.64595,294.77313,135.89082,291.97015C135.58858,290.77423,135.0613,289.31696,134.76057,288.71942C134.49733,288.12164,134.23329,287.26218,134.23213,286.81345C134.2311,286.40207,134.08022,285.87888,133.89265,285.65488C132.76755,284.42355,133.24887,282.51498,134.89308,281.98727C135.7151,281.686,137.61562,278.9885,138.20953,277.26654C139.02667,275.02057,138.52087,267.3177,137.50836,266.23566C137.09595,265.8254,137.05145,263.05807,137.46283,263.05698C137.79944,263.05612,139.0282,260.92123,139.02667,260.32285C139.02448,259.46262,140.29376,258.56186,141.49054,258.5588C142.1637,258.5571,142.83641,258.3685,142.9481,258.18124C143.09079,257.95575,144.8127,257.8382,146.76576,257.8382 Z M363.67352,683.96606C364.19788,683.96606,366.10934,685.97986,366.82312,687.324C367.08618,687.8469,367.53668,688.5189,367.83667,688.8174C368.1366,689.1158,368.69995,690.0493,369.07605,690.8711C369.45215,691.693,370.09082,692.85065,370.50378,693.4854C371.44263,694.979,371.40692,695.6523,370.47418,696.51483C369.46667,697.4149,368.64905,699.4365,368.65283,700.9325C368.65454,701.60565,368.50665,702.2792,368.35767,702.50397C368.17114,702.6914,367.7248,703.665,367.35352,704.713C366.5365,706.99646,364.59778,709.35754,362.87982,710.2968C362.3661,710.57874,361.9507,710.7288,361.61307,710.7288C360.87073,710.7288,360.50418,710.00336,360.29437,708.3587C359.8368,704.9191,359.15558,701.74194,358.85553,701.4062C358.70538,701.1821,358.55444,700.65894,358.55322,700.1727C358.55194,699.6866,358.40063,699.0138,358.21277,698.64026C358.0249,698.30414,357.57288,697.03375,357.19598,695.8753C356.36664,693.297,356.6999,691.9872,358.34314,691.0854C359.46356,690.48413,362.18445,686.8496,362.21942,685.9145C362.25623,685.65265,362.4793,685.1285,362.70264,684.71655C362.96332,684.3045,363.41125,683.96674,363.67303,683.96606 Z M273.701,87.307205C271.6379,87.307205,269.92377,87.380394,269.74484,87.545235C269.6329,87.65766,268.54904,87.92219,267.35275,88.11225C266.1564,88.26496,264.21243,88.56903,263.0163,88.79645C261.85742,88.98639,259.72638,89.2536,258.34283,89.36932C254.41699,89.753235,252.69818,90.35602,250.79543,92.15607C245.87068,96.84343,243.85666,99.017624,242.47867,101.26493C241.62192,102.61356,240.69052,104.03714,240.4672,104.449005C240.20639,104.82364,239.462,106.24661,238.8295,107.51992C238.2344,108.830345,237.00566,110.96523,236.11125,112.201675C231.67729,118.68286,229.59357,122.83947,229.5625,125.34521C229.56604,126.72899,229.00977,128.6002,227.85654,130.9967C227.3729,132.00768,226.89047,133.46751,226.74265,134.17845C226.4849,135.74986,225.7789,137.54686,225.44229,137.54771C225.2927,137.54808,224.99478,138.07237,224.77194,138.67137C224.58658,139.3076,224.1019,139.90721,223.72818,140.02036C220.55179,141.00082,219.43364,142.49948,218.36174,147.47629C217.65898,150.54488,217.51402,152.37776,217.52727,157.57611C217.58488,165.5418,218.19359,169.61687,219.65593,171.10893C220.21841,171.70598,221.3422,172.4136,222.09085,172.67361C224.37424,173.49051,224.44931,173.60257,224.45859,177.23026C224.4674,180.7083,225.078,185.53116,225.64172,186.61417C225.82971,186.98782,225.98224,188.14664,225.98499,189.23123C225.99005,191.21341,225.95264,191.21353,224.08582,192.41493C222.85358,193.2035,221.43378,193.7306,219.90112,193.99635C218.63007,194.18666,216.31258,194.67873,214.78041,195.13136C212.23674,195.8747,211.03854,196.20132,210.19106,196.20132C209.61911,196.20132,209.2069,196.05257,208.64865,195.78273C207.94006,195.44922,206.74931,195.19116,205.96384,195.19116C205.9607,195.19116,205.95757,195.19116,205.95444,195.19118C205.94937,195.1912,205.9443,195.1912,205.93922,195.1912C204.55588,195.1912,202.54517,194.7113,201.23929,194.04384C200.86539,193.85811,200.37988,193.70998,200.15497,193.70998L200.15292,193.70998C199.92755,193.70998,199.2175,193.48752,198.58177,193.19032C197.30882,192.6327,196.85973,192.52162,191.39742,191.67534C189.08458,191.29022,184.82515,191.11096,180.78596,191.11096C175.93874,191.11096,171.4087,191.36911,170.94072,191.8394C170.67961,192.10197,169.70775,192.29143,168.77277,192.29387C166.41669,192.29985,163.76483,193.65288,161.07861,196.2028C159.54393,197.69392,158.81557,198.2512,157.77354,198.2512C157.2957,198.2512,156.75189,198.13402,156.03413,197.93594C154.20027,197.41702,147.54172,196.79825,142.23062,196.58731C141.68652,196.56903,141.10167,196.56033,140.48586,196.56033C134.07439,196.56033,124.305984,197.50336,122.226875,198.3959C121.81599,198.5839,119.984024,198.81302,118.114395,198.92996C114.00112,199.1647,109.85318,200.48428,108.28647,202.05899C106.9434,203.37137,104.40397,204.79898,103.43162,204.80154L103.425804,204.80154C102.7899,204.80154,101.82098,204.5426,101.223495,204.17117C100.69178,203.87491,100.19334,203.73254,99.738556,203.73254C98.07914,203.73254,97.00109,205.62785,97.00933,208.8567C97.01556,211.32509,96.94103,211.40004,94.891106,214.17287C93.325806,216.3086,92.693054,217.50684,92.323425,219.22815C92.02734,220.46313,91.5824,221.96008,91.28485,222.59668C90.09442,225.10533,89.916626,228.7335,90.965775,229.47878C91.90241,230.14967,92.09321,231.64514,92.14924,238.9751C92.20222,245.10838,92.09492,247.05345,91.64936,248.32603C91.27778,249.26195,91.02193,251.58127,90.91609,254.08737C90.84718,256.40622,90.628494,258.65073,90.405045,259.02536C90.21913,259.4371,90.03401,260.18552,90.035355,260.70908C90.03676,261.2701,89.88899,261.98117,89.66554,262.35568C89.21895,263.217,88.553116,266.1358,88.18715,269.27814C87.93025,271.18622,88.007645,272.2331,88.385086,273.57843C88.68678,274.5501,88.95137,275.67145,88.95247,276.08282C88.992325,277.055,89.967606,278.21198,91.39065,278.95627C93.113304,279.84946,94.23683,280.4824,96.22218,281.749C97.19624,282.41953,98.544266,283.05197,99.21766,283.16245C99.85377,283.27304,100.7895,283.56992,101.31361,283.79294C102.960884,284.462,104.870544,285.39206,105.058044,285.57858C105.6946,286.24908,107.78569,287.06516,108.759926,287.06516L108.7745,287.06516C109.553894,287.06516,110.03686,287.288,110.14959,287.69736C110.26281,288.0711,110.78924,289.1917,111.277885,290.16278C111.766594,291.17133,112.18066,292.21735,112.18139,292.51654C112.18328,293.2646,113.65356,297.8609,114.44323,299.57916C116.436386,303.87494,116.699936,304.5849,116.47838,305.70746C116.33037,306.34357,116.107346,306.86774,115.920334,306.86823C115.24718,306.86993,115.59013,309.3748,116.33977,310.04593C116.75212,310.41898,117.09056,311.1287,117.09184,311.65225C117.094406,312.66202,117.8488,315.1658,118.26091,315.46402C118.710556,315.79935,119.37102,325.5214,119.38671,331.6922C119.40478,338.79788,119.93505,341.41446,121.77288,343.50406C122.44805,344.28775,123.53594,345.5939,124.211296,346.4523C124.88618,347.27292,125.63557,347.98148,125.89771,347.98148L125.89834,347.98148C126.12307,347.98148,127.022224,348.7269,127.84697,349.6221C128.6721,350.5176,130.09605,351.6359,131.03233,352.15714C131.96867,352.67825,133.57915,353.60916,134.6279,354.24222C135.67642,354.9125,136.68712,355.43338,136.83728,355.43338L136.83803,355.43338C137.66212,355.43338,141.52316,359.68518,141.52542,360.58255C141.52579,360.73218,142.46347,361.8142,143.58841,362.97083C145.23825,364.64954,146.02486,365.17102,147.5591,365.50378C148.31795,365.68445,149.32971,365.76953,150.3607,365.76953C152.07515,365.76953,153.84277,365.53424,154.58907,365.11194C154.9663,364.91162,155.22884,364.76163,155.48679,364.76163C156.14827,364.76163,156.77963,365.7479,159.23743,369.40088C159.80048,370.2224,160.401,371.08093,160.6261,371.3423C160.81378,371.60352,161.00146,371.90222,161.00189,372.05188C161.00226,372.20142,161.26508,372.61206,161.56512,372.948C161.90265,373.32104,162.16693,374.29285,162.16931,375.22778C162.13924,378.10757,161.70058,382.11038,161.36507,382.5226C160.88039,383.12222,160.33247,388.24722,159.90323,395.95242C159.72513,399.43103,159.39719,402.83508,159.17453,403.5089C158.9891,404.14514,158.73514,407.2124,158.66812,410.2793C158.56381,413.38367,158.34695,416.33875,158.12387,416.8628C157.67819,418.09814,158.3018,428.00723,158.97923,429.6885C159.31822,430.6226,159.35704,431.1835,159.02281,432.1193C158.76274,432.79312,158.46794,434.5142,158.322,435.97318C158.17607,437.39468,157.95518,438.77896,157.76866,438.96646C157.61961,439.1912,157.3991,440.68777,157.32841,442.33337C157.22044,443.97925,156.96568,446.74744,156.70836,448.50574C156.41484,450.7505,156.41783,451.9099,156.6812,452.54492C156.90672,452.99304,157.09666,454.1521,157.09892,455.04968C157.10124,455.94727,157.25291,456.76953,157.44023,456.88135C157.59007,456.99304,157.85387,457.77783,158.00554,458.60022C158.11992,459.46008,158.3842,460.43176,158.57207,460.76782C158.75993,461.10388,159.73729,463.08362,160.71489,465.13806C161.69243,467.19263,162.59453,468.948,162.74437,469.0598C162.89427,469.17163,163.30736,469.84372,163.72055,470.5533C164.09628,471.2629,164.50937,471.9349,164.65927,472.04672C164.77182,472.15878,165.25986,472.9055,165.74814,473.7269C166.23636,474.54843,166.9495,475.5565,167.3245,475.92953C167.69952,476.34,167.99986,476.788,168.00023,476.93765C168.0006,477.0872,168.67613,478.02042,169.50127,478.9534C171.1892,480.89383,171.3792,482.09012,170.41368,484.7852C169.93095,486.13272,169.89641,487.2549,170.16795,491.1061C170.32408,493.6863,170.40483,496.04224,170.36827,496.34143C170.33159,496.64075,170.18565,498.06226,170.07713,499.52112C169.96855,500.9425,169.67326,502.47668,169.48723,502.85107C168.1472,505.36023,168.36586,561.9441,169.712,576.56354C170.13437,580.9008,169.9114,581.46234,167.18521,583.0025C164.04825,584.7684,156.3228,591.10834,156.32487,591.9311C156.32555,592.19293,156.10191,592.49274,155.80302,592.60565C154.94371,592.9444,153.75652,596.7247,153.50273,599.86676C153.32133,602.0738,153.43706,603.45734,153.92845,605.513C154.3062,607.008,154.75835,608.31573,154.90825,608.42755C155.0955,608.53925,155.24638,609.0251,155.24767,609.54865C155.24895,610.0345,155.39944,610.4455,155.54898,610.4455L155.54926,610.4455C155.7363,610.4455,156.37653,612.2388,156.94304,614.44354C157.54716,616.686,158.18828,618.8161,158.37639,619.227C158.60179,619.63776,158.90257,620.27277,159.09044,620.60895C159.24101,620.9826,159.3922,621.618,159.39323,622.02936C159.39421,622.4034,159.62083,623.30023,159.92174,623.9727C161.35126,627.26013,161.73083,629.42834,161.28717,631.4491C161.02814,632.5342,160.69476,633.80664,160.50897,634.29333C160.32324,634.78,160.17639,635.86487,160.17859,636.7251C160.18298,638.44543,159.1842,642.78613,158.07037,645.9679C156.10223,651.4706,155.8097,654.08923,156.64154,657.67737C156.98175,659.09766,157.24762,660.7051,157.24915,661.30347C157.25067,661.90186,157.43915,662.49976,157.62646,662.6116C157.85107,662.72314,158.00287,663.58295,158.00513,664.4805C158.00745,665.37805,158.19666,666.2377,158.38391,666.34937C158.60858,666.46106,158.75934,666.90936,158.76025,667.2834C158.76208,667.99396,159.36444,669.5632,160.68024,672.25256C161.09375,673.0743,161.39491,673.859,161.3954,674.04596C161.39595,674.2704,161.80885,674.8677,162.33388,675.42737C162.8589,675.98706,163.27211,676.6966,163.27296,677.03314C163.27571,678.11707,167.05594,681.0964,168.47906,681.0964L168.48302,681.0964C168.85677,681.0964,169.3056,681.4688,169.49355,681.91656C169.75722,682.6639,170.35469,697.0235,170.48982,706.03613C170.4936,707.5321,170.53505,709.1402,170.53621,709.5889C170.79225,722.04205,170.64627,723.4637,169.15927,726.983C168.78738,727.8067,168.64291,729.8266,168.65292,733.7535C168.66147,737.1193,168.51785,739.4758,168.29385,739.626C168.10715,739.73865,167.92136,740.2253,167.92258,740.7115C167.92526,741.75867,165.46829,746.2153,162.26425,751.04785C160.84824,753.07104,159.73087,754.869,159.73111,754.9812C159.73141,755.0934,159.02353,756.1424,158.16629,757.30396C156.33975,759.6647,155.371,761.08826,154.99905,761.912C154.88766,762.2115,154.66415,762.54865,154.55222,762.66113C154.29099,762.88617,150.64487,770.3377,150.2363,771.4607C149.53079,773.44464,148.19975,779.46924,148.20317,780.8156C148.208,782.7229,147.32367,787.9237,146.72937,789.5333C146.35803,790.5815,146.35938,791.10504,146.9248,792.8613C147.30176,794.0198,148.05328,795.4016,148.57825,795.96124C149.89015,797.3038,154.23273,800.0587,155.02045,800.0587L155.0236,800.0587C155.39833,800.0587,156.14503,800.2809,156.74292,800.57794C158.49669,801.4492,160.91916,801.95056,162.78911,801.95056C163.71402,801.95056,164.50375,801.8279,165.01054,801.5667C165.34666,801.37885,166.35558,801.0397,167.21513,800.8131C168.07475,800.58655,169.04594,800.1353,169.3444,799.8354C169.6428,799.5354,169.97874,799.27277,170.09093,799.2725C170.20311,799.2722,171.43541,798.5211,172.81694,797.6574C174.23582,796.7562,175.54271,795.9301,175.76689,795.8548C176.5142,795.59106,181.10503,791.9517,181.14159,791.65247C181.14085,791.3533,181.58812,790.7537,182.9309,789.32916C183.37846,788.84186,183.75114,788.35474,183.75096,788.27997C183.75078,788.20514,184.57024,786.89404,185.53868,785.3583C187.73654,781.9493,188.40524,780.1898,188.54807,777.5342C188.58267,776.4121,188.80399,775.2148,188.99002,774.84033C189.17618,774.50323,189.32407,773.8297,189.3229,773.3809C189.31961,772.07196,190.54453,768.4412,191.25308,767.65405C191.626,767.24176,191.99844,766.60504,192.14705,766.23065C192.25832,765.8564,192.48189,765.55664,192.6689,765.55615C192.8185,765.5558,193.07954,765.2559,193.19075,764.88165C193.48805,764.13293,194.04646,763.1217,195.16457,761.5856C195.72346,760.76135,196.50764,760.3106,197.96529,759.93286C199.64703,759.47974,200.39368,758.9542,203.00482,756.2923C206.88428,752.3555,209.45518,748.5717,209.45073,746.81396C209.44987,746.4774,209.59837,746.0657,209.74754,745.8783C210.15776,745.42847,209.61644,738.4362,208.81718,732.9781C208.51244,730.80975,208.13231,728.37976,208.01805,727.5573C207.90381,726.7348,207.67725,725.9126,207.48969,725.6887C207.07715,725.24097,207.02878,720.9027,207.439,720.45294C207.6254,720.228,207.95859,718.88086,208.2167,717.4591C208.54819,715.4387,208.58298,714.3914,208.24277,712.9711C207.9783,711.9246,207.71255,710.35455,207.63535,709.4198C207.52078,708.48517,207.25601,707.3264,206.99301,706.8409C206.69241,706.2807,206.53702,703.99976,206.52853,700.67126C206.51657,695.9591,206.62686,695.2108,207.33365,693.7131C207.81747,692.7769,208.29953,691.1675,208.40915,690.1575C208.55606,689.1099,208.81528,688.0995,208.96432,687.8747C209.15073,687.64984,209.40903,686.2655,209.51743,684.7692C209.6633,683.3103,209.92178,682.00073,210.07114,681.8881C210.25778,681.77545,210.40512,680.8775,210.40244,679.8304C210.39987,678.8206,210.58481,677.9974,210.77182,677.9969C210.99619,677.99634,211.14377,677.2105,211.1412,676.20074C211.1354,673.91943,212.2525,672.0093,213.56146,672.0059C214.08502,672.0046,214.79517,671.8532,215.16876,671.6652C215.50488,671.5148,216.43878,671.0636,217.22314,670.6877C217.97021,670.3117,218.60468,669.824,218.60413,669.59955C218.64099,669.37506,219.38641,668.3634,220.28143,667.3514C221.21368,666.3019,221.95929,665.365,221.9588,665.178C221.95844,665.02844,222.14508,664.87836,222.36945,664.8778C223.0426,664.8761,225.50346,661.95264,226.4337,660.08044C227.51286,657.9459,227.87682,654.0182,227.88976,644.36926C227.87065,636.85223,227.75938,637.2264,230.3731,635.5743C232.53868,634.185,240.74516,625.82416,242.38435,623.3143C243.12947,622.19037,244.02376,620.9166,244.39674,620.5043C244.76967,620.0919,245.29134,619.3425,245.55183,618.81836C245.81227,618.29407,246.18434,617.5453,246.40773,617.1333C247.5987,614.88635,248.00616,613.3519,248.00061,611.1454C247.9972,609.79895,248.14398,608.7141,248.331,608.7136C248.518,608.71326,248.544,604.22534,248.41742,598.57837C248.24683,590.3136,248.31671,588.3688,248.72754,588.1433C249.36224,587.73035,249.72238,567.57135,249.08347,566.3389C248.67001,565.51715,247.4973,560.2469,247.49449,559.1623C247.49376,558.8631,247.82964,558.6005,248.24106,558.59955L248.24445,558.59955C248.72842,558.59955,248.98965,558.8603,248.99069,559.2707C248.99173,559.68207,249.32986,560.2796,249.74222,560.6525C250.15451,561.0256,250.49283,561.6978,250.49411,562.184C250.49521,562.6329,250.72177,563.4924,251.02249,564.09C252.3381,566.70465,253.65506,569.84283,254.25827,571.7486C254.48453,572.4959,254.9354,573.31757,255.2352,573.5412C255.49765,573.8023,255.76096,574.4001,255.7622,574.88635C255.76343,575.37213,255.95125,575.78284,256.13815,575.78284L256.1391,575.78284C256.36313,575.78284,256.5133,576.1189,256.51434,576.5299C256.51532,576.9038,256.74194,577.8009,257.04285,578.47327C258.84857,582.62,259.71313,584.33813,260.98944,586.20483C261.7777,587.3622,262.94183,589.2291,263.54303,590.3496C264.1443,591.47,264.82068,592.73987,265.04608,593.15076C265.27155,593.5615,265.64746,594.3085,265.87317,594.8314C266.1363,595.3545,266.51215,596.10144,266.77496,596.5122C267.52612,597.7444,270.22894,601.73926,270.41644,601.92566C270.64136,602.14966,271.99402,604.6145,273.34692,607.1915C273.873,608.1626,274.66147,609.39465,275.14908,609.95447C275.63675,610.55164,276.04984,611.22363,276.05057,611.5228C276.05124,611.78436,276.23846,612.0082,276.42526,612.0082L276.4268,612.0082C276.65063,612.0082,276.80038,612.23193,276.80106,612.4934C276.8018,612.7926,277.17715,613.3152,277.58957,613.7256C278.78897,614.76965,279.88046,617.49695,280.18613,620.0393C280.41562,622.05817,281.66156,626.69257,282.4519,628.6353C282.79047,629.3824,282.9792,630.09247,284.18652,634.24066C284.7525,636.2215,285.87988,638.3503,286.62933,638.90936C286.77917,639.0213,287.11743,639.69354,287.45587,640.4032C288.0201,641.822,290.0425,643.76013,290.9409,643.76013L290.9447,643.76013C291.24426,643.76013,291.76654,643.90814,292.14008,644.09375C292.47717,644.2798,293.18848,644.57715,293.71252,644.76294C294.2367,644.9861,295.28497,645.4321,296.07123,645.7667C296.85632,646.1008,297.71585,646.3601,298.01617,646.3601L298.01965,646.3601C298.31793,646.3601,298.5788,646.50885,298.57935,646.73267C298.57983,646.91943,298.76685,647.1057,298.9908,647.1057L298.993,647.1057C299.62857,647.1057,300.4158,648.26196,300.45557,649.19617C300.4566,649.60754,300.56995,650.05615,300.6825,650.20544C300.8324,650.31726,301.32172,651.5502,301.81146,652.9326C302.2636,654.27783,302.903,655.6974,303.20306,656.0333C303.4657,656.36914,304.17896,657.4144,304.70496,658.3855C305.5315,659.8419,305.72034,660.5895,305.72607,662.8334C305.73547,666.5358,306.72253,672.33014,307.66202,674.0855C307.85,674.4591,308.0013,675.13184,308.00266,675.6554C308.00388,676.1416,308.26822,677.15076,308.56918,677.86053C308.87027,678.6078,309.13474,679.65424,309.13608,680.17786C309.13742,680.7011,309.3252,681.1118,309.5121,681.1118L309.51297,681.1118C309.73703,681.1118,309.88724,681.4479,309.8884,681.89624C309.88943,682.3077,310.45303,683.35333,311.1658,684.21173C311.87857,685.07007,312.89224,686.6008,313.45584,687.6466C314.01944,688.6549,314.9202,689.9242,315.4825,690.44635C316.79453,691.6398,318.52237,694.58984,318.52505,695.637C318.52695,696.385,320.0358,701.4674,320.78848,703.33545C320.97653,703.74634,321.2026,704.41895,321.27853,704.83014C321.65634,706.3625,323.0491,709.8745,323.80032,711.1815C324.2136,711.9284,324.55215,712.67554,324.5527,712.8999C324.5532,713.0869,325.75345,714.4676,327.17844,715.95996L329.80313,718.646L329.6616,721.8253C329.5913,723.58325,329.33636,726.2766,329.11584,727.81055C328.8954,729.3444,328.643,733.04755,328.53845,736.03973C328.4712,739.0318,328.21753,742.21136,328.03284,743.1468C327.55212,745.2797,327.5299,751.26355,327.9795,751.56165C328.1667,751.67334,328.43,752.23364,328.58112,752.83167C328.92157,754.36414,332.1504,759.2926,334.32526,761.56836C335.33777,762.6504,336.31354,763.95685,336.46442,764.48004C336.61523,764.9659,337.2536,765.97394,337.81635,766.6831C338.41656,767.3922,338.9049,768.2511,338.90576,768.5877C338.90662,768.9243,339.16968,769.4098,339.46948,769.6708C339.76935,769.9319,340.03278,770.56696,340.03424,771.1279C340.03564,771.6889,340.1867,772.2869,340.3742,772.47345C340.56177,772.6973,341.05078,773.81805,341.46515,774.9764C342.10516,776.65765,342.25787,777.8915,342.22827,780.95825C342.19836,783.8754,342.389,785.3335,342.91653,786.8656C343.29337,787.9866,343.7073,788.9953,343.8198,789.1072C344.11972,789.40564,344.90836,790.6752,345.5848,791.9824C345.92297,792.6544,346.3356,793.2142,346.52267,793.2142L346.52304,793.2142C346.67282,793.2142,347.27283,793.9231,347.83585,794.7816C348.39914,795.67773,349.41232,797.0215,350.08743,797.8052C350.76254,798.5514,351.32565,799.3728,351.32614,799.55975C351.3267,799.7838,351.51346,799.9328,351.7001,799.9328L351.70148,799.9328C351.9263,799.9328,352.5626,800.34235,353.12454,800.86414C353.6864,801.38586,354.32266,801.7954,354.58484,801.7954L354.58725,801.7954C354.84827,801.7954,355.07205,801.9441,355.07242,802.0933C355.0729,802.28033,355.78452,802.6899,356.683,803.06165C357.5441,803.4334,358.59238,803.84216,359.00418,804.02814C361.45795,805.0339,362.69327,805.4612,364.0765,805.4612C364.99362,805.4612,365.97577,805.2733,367.42123,804.94165C371.64487,803.996,372.4296,803.73224,373.99808,802.8306C375.8279,801.7788,378.62656,799.3034,378.6251,798.74243C378.62466,798.5554,378.77377,798.36804,378.9608,798.36755C379.1478,798.36707,379.59457,797.5806,379.92856,796.57C380.70834,794.36145,381.15994,780.78455,380.5187,778.617C380.29227,777.83215,379.83804,775.7016,379.49686,773.86993C378.928,770.7673,378.62607,769.68353,377.76163,768.0028C377.57364,767.6293,377.4227,767.1061,377.42203,766.8443C377.42136,766.58246,376.81967,765.2751,376.10574,763.9679C375.39175,762.62335,374.60263,761.12946,374.3395,760.6065C374.0764,760.08356,373.66336,759.44885,373.4009,759.18774C373.13846,758.9266,372.913,758.4784,372.9122,758.17926C372.91153,757.9174,372.79855,757.6185,372.64883,757.54407C372.16214,757.35834,370.28543,754.7078,370.2844,754.29645C370.28384,754.0723,370.1342,753.886,369.91037,753.886L369.90878,753.886C369.722,753.886,369.53482,753.66223,369.53403,753.36334C369.53336,753.10156,369.27048,752.65344,368.9332,752.3925C368.0712,751.6467,368.40268,749.6637,369.4487,749.21234C369.89706,749.0242,370.27023,748.72406,370.26987,748.57446C370.26938,748.38745,370.60568,748.2744,371.01706,748.2733C371.46585,748.2722,372.13828,747.9713,372.5486,747.5589C372.959,747.18384,373.93033,746.77,374.67795,746.6185C375.68735,746.4664,376.65817,745.8655,378.11313,744.4407C379.23227,743.3533,380.8373,742.115,381.65903,741.70154C382.48074,741.288,383.8248,740.387,384.68338,739.74915C385.54184,739.0738,386.43796,738.51044,386.66238,738.5099C386.92416,738.5092,387.59653,738.2084,388.11923,737.833C388.67923,737.45764,389.76218,736.8191,390.5466,736.4431C391.2935,736.02985,391.92807,735.57935,391.9277,735.42975C391.92722,735.24274,392.18875,735.12994,392.48795,735.12915C392.78714,735.1284,393.0485,734.97815,393.048,734.79114C393.04758,734.6042,393.4957,734.34125,394.01895,734.22766C394.916,734.00104,395.40115,733.58844,399.28134,729.95087C400.21402,729.05096,401.44608,728.225,402.04416,728.11127C402.6049,727.9977,403.3892,727.5843,403.72482,727.2095C404.0604,726.7972,404.5084,726.49695,404.69534,726.49646C405.33115,726.4948,410.18454,723.154,411.04208,722.14197C411.5269,721.6172,412.42264,720.90436,413.0203,720.60364C413.65518,720.2654,414.77505,719.43976,415.55875,718.76465C416.3049,718.0522,417.20102,717.4889,417.5002,717.48816C417.7994,717.48737,418.0607,717.2997,418.0602,717.1127C418.05966,716.8883,418.2463,716.7383,418.47067,716.7377C418.95688,716.73645,421.4952,714.86005,421.90488,714.18585C422.05386,713.96106,422.83786,713.3981,423.5848,713.0222C424.33176,712.60895,425.78757,711.5206,426.75754,710.58325C427.7275,709.64575,428.69797,708.858,428.92233,708.85736C429.67032,708.85547,431.9846,707.1293,433.9244,705.1796C434.59586,704.5047,435.7156,703.6417,436.42526,703.26587C438.66617,702.1008,439.48758,701.5378,440.7935,700.3377C441.5397,699.6626,442.54758,698.9121,443.0331,698.64905C443.556,698.3859,444.26523,697.86053,444.6384,697.523C445.01144,697.1481,445.7584,696.7348,446.31906,696.6212C447.40286,696.3193,449.83008,694.8919,451.06128,693.72943C451.4718,693.3918,451.91986,693.09143,452.10687,693.09094C452.59308,693.0897,452.43842,691.108,451.87567,690.39886C451.61298,690.02576,451.3133,689.7274,451.20093,689.7274L451.20065,689.7274C450.90076,689.7274,447.115,686.25916,442.12924,681.44794C439.43002,678.87427,436.13095,675.74115,434.81882,674.5103C432.457,672.30975,432.38205,672.2351,432.4899,670.5145C432.55988,668.6465,431.84763,667.3402,430.69055,667.3402L430.68668,667.3402C430.35007,667.34106,428.74362,668.0183,427.13766,668.84515C425.49417,669.6721,423.99997,670.3491,423.81296,670.3496C423.5886,670.35016,420.48944,672.3028,416.86795,674.70557C410.96878,678.61005,407.7579,680.7125,405.96548,681.8016C405.6295,682.02686,404.39758,682.8902,403.27777,683.7532C402.12073,684.6537,401.07538,685.3669,400.9632,685.3672C400.8136,685.36755,399.54395,686.1188,398.12518,687.0574C396.70642,687.9959,395.28717,688.74756,395.02533,688.7482C394.76355,688.74884,393.86664,689.01294,393.08215,689.35156C392.285,689.69934,391.5252,689.839,390.29147,689.839C389.79068,689.839,389.2118,689.816,388.5206,689.77454C386.7999,689.62933,385.15372,689.37177,384.85385,689.11066C384.67813,688.9709,384.42862,688.89703,384.02054,688.89703C383.55817,688.89703,382.89227,688.9918,381.89954,689.193L379.46985,689.68536L378.5321,688.56573C378.00702,687.96875,377.33075,686.7737,376.99188,685.87695C376.65323,685.0179,376.20276,684.3086,376.05304,684.3086L376.0523,684.3086C375.86563,684.3086,375.71582,684.0848,375.71503,683.7859C375.7143,683.4867,375.60126,683.1878,375.45154,683.1134C375.1147,683.0021,372.3366,678.85785,372.33575,678.52124C372.33545,678.40906,371.92267,677.8491,371.39764,677.2895C370.87268,676.72986,370.45966,676.0951,370.45898,675.8333C370.4583,675.5719,370.3085,675.3481,370.08466,675.3481L370.08328,675.3481C369.89642,675.3481,369.7091,675.087,369.70837,674.788C369.70764,674.4891,369.55762,674.22784,369.40814,674.22784L369.40768,674.22784C369.25793,674.22784,368.61987,673.2946,368.01868,672.1744L366.92883,670.08276L367.5954,667.5006C368.55835,663.7583,368.2317,652.9509,367.06128,648.6156C366.60834,646.9712,366.04352,645.4767,365.85596,645.2528C365.66846,645.0663,365.5174,644.46826,365.516,643.90735C365.5146,643.3463,365.36346,642.7483,365.13873,642.6367C364.95142,642.5249,364.7619,641.5156,364.75916,640.431C364.75653,639.384,364.60425,638.3372,364.41675,638.1507C363.6292,637.29254,361.7026,629.7055,362.0363,628.5452C362.11008,628.1711,362.03354,627.46063,361.80795,627.0125C360.34134,623.83734,359.80728,619.72473,360.77713,618.75C361.0756,618.4501,361.33603,617.92566,361.33517,617.5891C361.33328,616.8412,362.4874,614.78125,362.89877,614.7803C363.04837,614.7799,363.19724,614.48035,363.19626,614.1063C363.19528,613.7323,363.30637,613.2833,363.4183,613.1709C363.97787,612.6084,365.0153,608.791,365.2712,606.4718C365.48978,604.1898,365.4139,603.74133,364.51157,601.87354C363.9479,600.7534,363.23523,599.82056,362.97324,599.82056L362.97043,599.82056C362.7092,599.82056,362.41153,599.7092,362.33646,599.5231C362.26132,599.37366,361.13712,598.51624,359.78848,597.6222C358.43985,596.728,357.31564,595.8334,357.2404,595.6465C357.1653,595.4973,356.94113,595.34863,356.71707,595.34863L356.71582,595.34863C356.34103,595.34863,352.6299,591.6936,349.9675,588.7462C349.10495,587.81335,348.5414,586.80505,348.54,586.24414C348.53867,585.7206,348.38785,585.23474,348.20053,585.12305C348.0132,585.01135,347.74954,584.2639,347.63547,583.51636C347.3324,581.98376,344.96313,576.82874,344.4013,576.49365C344.17657,576.3445,344.02594,575.9336,344.0249,575.5222C344.02393,575.14844,343.8737,574.8125,343.6496,574.8125L343.64896,574.8125C343.42462,574.8125,343.2719,573.57886,343.26752,571.85895C343.26337,570.21344,343.11005,568.7552,342.88538,568.6436C342.69812,568.5319,342.50946,567.8592,342.50763,567.1486C342.5058,566.43805,342.3545,565.7653,342.12982,565.6536C341.71777,565.3929,341.59125,559.7459,342.0016,559.33356C342.67303,558.65875,343.5996,555.3652,343.59515,553.6075C343.59253,552.56036,343.73962,551.5876,343.92633,551.4749C344.07562,551.36237,344.33453,550.2398,344.44354,548.96783C344.5525,547.6961,344.81122,546.4987,345.03503,546.27374C345.2589,546.04865,345.44458,545.5246,345.44342,545.07587C345.44232,544.627,345.66522,544.0656,345.88904,543.8407C346.41132,543.3158,346.43414,537.5936,345.9593,527.3103C345.79965,523.3837,345.83273,521.7006,346.16776,521.064C346.50266,520.3901,346.53897,519.9786,346.2006,519.26886C345.8998,518.6337,345.86093,518.07294,346.08426,517.6236C346.30765,517.2491,346.30643,516.7629,346.0812,516.42694C345.89352,516.16547,345.7421,515.4554,345.7407,514.89435C345.73923,514.33344,345.58823,513.77277,345.36356,513.6611C345.1763,513.5494,344.98795,513.0263,344.9866,512.50275C344.98434,511.60516,344.9089,511.34357,343.70645,509.10272C343.3682,508.46783,343.1044,507.68304,343.10355,507.3465C343.1027,507.01035,342.95276,506.74908,342.72885,506.74908L342.7276,506.74908C342.54074,506.74908,342.35336,506.45056,342.3524,506.07684C342.35153,505.7403,342.08817,505.14252,341.78806,504.76923C341.52524,504.35858,340.8856,502.82684,340.39548,501.29474C339.94284,499.76273,339.41626,498.5301,339.26657,498.5301L339.266,498.5301C339.07928,498.5301,338.96664,498.26883,338.9659,497.9699C338.96506,497.6334,338.73904,496.99814,338.4387,496.55014C337.65018,495.31796,337.10953,488.58762,337.31906,482.75278C337.46036,479.49875,337.3804,477.4421,337.11783,477.14352C336.93015,476.88217,336.55182,475.16275,336.3227,473.33075C336.05627,471.49896,335.602,469.331,335.338,468.47162C335.03662,467.61212,334.77008,465.74286,334.76642,464.28424C334.76282,462.8631,334.57227,461.47992,334.34735,461.25604C334.0849,460.99493,334.00793,460.17242,334.1546,459.01263C334.30176,458.03998,334.52063,455.87018,334.66608,454.2243C334.84882,452.5783,335.14374,450.8946,335.36713,450.4826C336.1861,448.98456,337.78217,444.23105,337.9654,442.77194C338.07562,441.98618,338.33545,441.2003,338.48474,441.08774C338.67145,440.97507,338.81958,440.41367,338.81805,439.81528C338.8166,439.2169,338.96472,438.6556,339.1515,438.54294C339.33813,438.43015,339.59863,437.90585,339.70947,437.38205C339.93176,436.5587,341.94006,432.1406,342.8708,430.4553C343.01965,430.15573,343.466,429.21957,343.83795,428.39597C344.17236,427.57236,344.6187,426.59872,344.80487,426.2617C344.99084,425.88715,345.1391,425.36322,345.13824,425.02655C345.13702,424.54047,345.88,422.59393,346.66144,421.02106C346.8474,420.64667,346.99548,420.0478,346.99463,419.71124C346.9937,419.33722,347.25354,418.55133,347.5512,417.9522C347.84894,417.39044,348.10846,416.49213,348.10724,416.00604C348.10602,415.51984,348.29193,415.10797,348.47894,415.10748C348.7033,415.107,348.85168,414.62042,348.85022,414.0594C348.8473,412.9001,349.8485,409.53156,350.37073,408.9693C350.55707,408.74445,350.70532,408.22052,350.7041,407.7343C350.70135,406.64975,351.8496,402.2711,352.2229,402.0085C352.3722,401.89597,352.594,400.8481,352.74054,399.6511C352.8872,398.4913,353.14618,397.40598,353.33295,397.2933C353.5196,397.18063,353.66797,396.69406,353.66663,396.1705C353.66528,395.64694,353.85034,394.86105,354.0736,394.4492C354.297,394.0372,354.63043,392.80222,354.77734,391.75473C354.96173,390.707,355.36816,388.7612,355.70135,387.41403C356.0345,386.06686,356.4041,384.34567,356.51428,383.55994C356.62457,382.81177,356.8471,382.0631,357.03375,381.95044C357.22052,381.8379,357.3686,381.239,357.36707,380.64063C357.364,379.44385,358.325,374.99103,358.84546,373.75543C359.03137,373.34357,359.476,371.697,359.80853,370.08798C360.17847,368.51633,360.58655,367.2064,360.73615,367.20602C360.88574,367.20554,361.1056,365.40988,361.24945,363.16562C361.39343,360.9587,361.6502,358.97592,361.8366,358.75107C362.13483,358.3763,362.68347,353.51303,363.1172,347.56555C363.22565,346.1068,363.48407,344.79712,363.67065,344.60962C363.85706,344.38477,364.00513,343.786,364.0036,343.18762C364.0022,342.6267,364.40826,340.53137,364.88928,338.51062C365.37036,336.48975,365.9618,333.75818,366.18274,332.41125C366.9922,327.1733,367.50922,324.59155,367.80774,324.32898C367.9569,324.17908,368.06116,321.03735,368.05182,317.3723C368.0371,311.57556,367.92218,310.4912,367.32025,309.1089C366.90668,308.24988,366.49115,306.60547,366.37604,305.48376C366.261,304.3621,365.99255,301.7449,365.80035,299.6884C365.60815,297.63187,365.29907,293.74332,365.1427,291.0884C364.98627,288.39603,364.75586,286.04056,364.6059,285.8539C364.4557,285.6299,364.19077,284.39642,364.07516,283.05035C363.69254,279.648,362.709,275.27493,362.184,274.71524C361.92154,274.45413,361.50815,273.66983,361.20712,272.96C359.96506,269.82156,356.77237,264.40692,355.2727,262.91486C354.7104,262.39264,353.24677,260.41425,352.00793,258.5849C350.5064,256.38214,347.80585,253.28497,344.0564,249.51717C340.94476,246.42134,338.20844,243.84798,337.98352,243.84798L337.98303,243.84798C337.75845,243.84798,337.30896,243.438,336.97128,242.9156C336.63354,242.3932,336.18405,241.98312,335.99683,241.98312L335.9963,241.98312C335.80893,241.98312,334.87234,241.23758,333.89792,240.30551C332.9606,239.3729,331.87393,238.55295,331.4996,238.40414C331.12534,238.29294,330.8256,238.0693,330.82516,237.91977C330.82492,237.80759,330.30014,237.36008,329.626,236.98776C327.3038,235.61008,323.70535,232.40282,323.70352,231.69225C323.7028,231.39346,323.5158,231.16978,323.29178,231.16978L323.29053,231.16978C323.02826,231.16978,322.0545,230.462,321.1177,229.56712C320.14307,228.70943,318.71875,227.47884,317.89447,226.88264C314.70938,224.42233,314.10904,223.63852,313.65445,221.35837C313.124,218.66696,313.2366,218.81638,309.7491,215.12267C308.13657,213.40636,306.82382,211.87645,306.82333,211.68956C306.82285,211.50255,306.41,210.94249,305.8851,210.42027C305.3602,209.89806,304.94748,209.3756,304.947,209.18858C304.94662,209.03894,304.64633,208.59094,304.30862,208.18042C303.93375,207.80737,303.44565,207.06067,303.18253,206.53772C302.6185,205.3424,301.56223,201.75476,301.56003,200.89465C301.5585,200.29628,299.9055,197.34596,298.29156,195.06862C297.8037,194.43422,297.42816,193.79933,297.4278,193.64967C297.42743,193.50014,297.0149,193.0525,296.4903,192.64235C295.59088,191.93411,295.13745,190.10269,295.88544,190.10074C296.07245,190.10025,296.3327,189.50137,296.44305,188.79056C296.59088,188.0795,296.85114,187.4805,297.03815,187.48001C297.2625,187.4794,297.41107,187.06766,297.40973,186.54398C297.4084,186.02042,297.59436,185.60855,297.7813,185.60818C298.00574,185.60757,298.15436,185.23318,298.15314,184.7471C298.15106,183.92435,299.0779,180.74297,299.67325,179.54472C299.85925,179.17032,300.00775,178.7211,300.00714,178.49673C300.0066,178.27237,300.4154,177.2615,300.93622,176.17557C301.45715,175.1271,301.8656,173.96683,301.86475,173.63016C301.86395,173.33096,302.2732,172.46976,302.7575,171.75798C303.24188,171.04619,303.91107,169.47368,304.24475,168.31352C304.5783,167.15324,305.06195,166.14226,305.28613,166.06694C305.6225,165.9539,305.8053,164.30779,305.87036,160.4931C305.97296,156.71564,306.19275,154.88252,306.528,154.35799C306.8261,153.94588,307.04883,153.27217,307.0476,152.78596C307.04645,152.33711,307.23224,151.85054,307.41888,151.73787C307.643,151.62495,307.78967,150.46529,307.78638,149.15633C307.78314,147.88486,307.9297,146.68771,308.11603,146.46286C308.9367,145.60056,309.26385,141.89731,309.02332,135.54015C308.90192,131.91272,308.66898,128.58482,308.48093,128.17393C307.91672,126.90379,306.88974,120.13721,306.57968,115.83729C306.269,111.31276,305.89188,110.07961,303.93942,107.05521C302.40005,104.66556,300.7504,103.06168,299.47787,102.690956C298.5424,102.46891,297.71793,101.83512,295.58084,99.70891C294.90604,99.074875,292.8451,97.47197,291.0091,96.130295C287.89954,93.96905,286.73743,92.887505,283.4372,89.30548C282.8747,88.70868,281.90057,88.00056,281.33893,87.74018C280.6871,87.47239,276.80032,87.307205,273.701,87.307205 Z"></path></g></g></svg> 